<svg version="1.1" xmlns="http://www.w3.org/2000/svg" xmlns:xlink="http://www.w3.org/1999/xlink" width="433.20000000000005" height="553"><defs><linearGradient id="ONRgXCyiUdyr" x1="400px" x2="1303.0000007152557px" y1="1293.000002861023px" y2="341.5px" gradientUnits="userSpaceOnUse"><stop offset="0" stop-color="rgb(211,211,211)" stop-opacity="1"/><stop offset="1" stop-color="rgb(29,122,218)" stop-opacity="1"/></linearGradient><linearGradient id="RIHLBKGCTHiu" x1="400px" x2="1303.0000007152557px" y1="1621.2000035762787px" y2="474.50000071525574px" gradientUnits="userSpaceOnUse"><stop offset="0" stop-color="rgb(211,211,211)" stop-opacity="1"/><stop offset="1" stop-color="rgb(29,122,218)" stop-opacity="1"/></linearGradient><linearGradient id="iOzEczyXlHvz" x1="400px" x2="400px" y1="2277.6000050067905px" y2="2027.4000042915345px" gradientUnits="userSpaceOnUse"><stop offset="0" stop-color="rgb(211,211,211)" stop-opacity="1"/><stop offset="1" stop-color="rgb(211,211,211)" stop-opacity="1"/></linearGradient><linearGradient id="TEAoRifBWPrK" x1="400px" x2="1303.0000007152557px" y1="2277.6000050067905px" y2="341.5px" gradientUnits="userSpaceOnUse"><stop offset="0" stop-color="rgb(211,211,211)" stop-opacity="1"/><stop offset="1" stop-color="rgb(29,122,218)" stop-opacity="1"/></linearGradient><linearGradient id="fKsOWNwKudAc" x1="300px" x2="400px" y1="341.5px" y2="1621.2000035762787px" gradientUnits="userSpaceOnUse"><stop offset="0" stop-color="rgb(255,193,7)" stop-opacity="1"/><stop offset="1" stop-color="rgb(211,211,211)" stop-opacity="1"/></linearGradient><linearGradient id="azbHdrbhrCwE" x1="300px" x2="400px" y1="474.50000071525574px" y2="1621.2000035762787px" gradientUnits="userSpaceOnUse"><stop offset="0" stop-color="rgb(255,193,7)" stop-opacity="1"/><stop offset="1" stop-color="rgb(211,211,211)" stop-opacity="1"/></linearGradient></defs><g transform="translate(56.2,9.200000000000001) scale(0.2,0.2)"><path fill="rgb(244,236,255)" stroke="rgb(255,255,255)" paint-order="fill stroke markers" d=" M 801.5000003576279 -44 L 1874.0000007152557 -44 L 1874.0000007152557 -44 A 8 8 0 0 1 1882.0000007152557 -36 L 1882.0000007152557 2708.6000050067905 L 1882.0000007152557 2708.6000050067905 A 8 8 0 0 1 1874.0000007152557 2716.6000050067905 L -271 2716.6000050067905 L -271 2716.6000050067905 A 8 8 0 0 1 -279 2708.6000050067905 L -279 -36 L -279 -36 A 8 8 0 0 1 -271 -44 L 801.5000003576279 -44 Z" fill-opacity="1" stroke-opacity="1" stroke-miterlimit="10" stroke-width="2"/><text fill="rgb(0,0,0)" stroke="none" font-family="Avenir, Helvetica, Arial, sans-serif" font-size="32px" font-style="normal" font-weight="bold" text-decoration="normal" x="801.5000003576279" y="31" text-anchor="middle" dominant-baseline="text-after-edge" fill-opacity="1">.</text><path fill="rgb(255,255,255)" stroke="rgb(211,211,211)" paint-order="fill stroke markers" d=" M 1303.0000007152557 157.5 L 1672.5000007152557 157.5 L 1672.5000007152557 157.5 A 8 8 0 0 1 1680.5000007152557 165.5 L 1680.5000007152557 833.5000021457672 L 1680.5000007152557 833.5000021457672 A 8 8 0 0 1 1672.5000007152557 841.5000021457672 L 933.5000007152557 841.5000021457672 L 933.5000007152557 841.5000021457672 A 8 8 0 0 1 925.5000007152557 833.5000021457672 L 925.5000007152557 165.5 L 925.5000007152557 165.5 A 8 8 0 0 1 933.5000007152557 157.5 L 1303.0000007152557 157.5 Z" fill-opacity="1" stroke-opacity="1" stroke-miterlimit="10"/><text fill="rgb(0,0,0)" stroke="none" font-family="Avenir, Helvetica, Arial, sans-serif" font-size="32px" font-style="normal" font-weight="bold" text-decoration="normal" x="1303.0000007152557" y="232.5" text-anchor="middle" dominant-baseline="text-after-edge" fill-opacity="1">variables.tf</text><path fill="rgb(255,255,255)" stroke="rgb(211,211,211)" paint-order="fill stroke markers" d=" M 400 1088.000002861023 L 825.5 1088.000002861023 L 825.5 1088.000002861023 A 8 8 0 0 1 833.5 1096.000002861023 L 833.5 2507.1000050067905 L 833.5 2507.1000050067905 A 8 8 0 0 1 825.5 2515.1000050067905 L -25.5 2515.1000050067905 L -25.5 2515.1000050067905 A 8 8 0 0 1 -33.5 2507.1000050067905 L -33.5 1096.000002861023 L -33.5 1096.000002861023 A 8 8 0 0 1 -25.5 1088.000002861023 L 400 1088.000002861023 Z" fill-opacity="1" stroke-opacity="1" stroke-miterlimit="10"/><text fill="rgb(0,0,0)" stroke="none" font-family="Avenir, Helvetica, Arial, sans-serif" font-size="32px" font-style="normal" font-weight="bold" text-decoration="normal" x="400" y="1163.000002861023" text-anchor="middle" dominant-baseline="text-after-edge" fill-opacity="1">main.tf</text><path fill="rgb(255,255,255)" stroke="rgb(211,211,211)" paint-order="fill stroke markers" d=" M 300 157.5 L 669.5 157.5 L 669.5 157.5 A 8 8 0 0 1 677.5 165.5 L 677.5 567.5000007152557 L 677.5 567.5000007152557 A 8 8 0 0 1 669.5 575.5000007152557 L -69.5 575.5000007152557 L -69.5 575.5000007152557 A 8 8 0 0 1 -77.5 567.5000007152557 L -77.5 165.5 L -77.5 165.5 A 8 8 0 0 1 -69.5 157.5 L 300 157.5 Z" fill-opacity="1" stroke-opacity="1" stroke-miterlimit="10"/><text fill="rgb(0,0,0)" stroke="none" font-family="Avenir, Helvetica, Arial, sans-serif" font-size="32px" font-style="normal" font-weight="bold" text-decoration="normal" x="300" y="232.5" text-anchor="middle" dominant-baseline="text-after-edge" fill-opacity="1">outputs.tf</text><path fill="rgb(255,255,255)" stroke="rgb(0,0,0)" paint-order="fill stroke markers" d=" M 400 1237.000002861023 L 722 1237.000002861023 L 722 1237.000002861023 A 8 8 0 0 1 730 1245.000002861023 L 730 1419.000002861023 L 730 1419.000002861023 A 8 8 0 0 1 722 1427.000002861023 L 78 1427.000002861023 L 78 1427.000002861023 A 8 8 0 0 1 70 1419.000002861023 L 70 1245.000002861023 L 70 1245.000002861023 A 8 8 0 0 1 78 1237.000002861023 L 400 1237.000002861023 Z" fill-opacity="1" stroke-opacity="1" stroke-miterlimit="10" stroke-width="5"/><rect fill="rgb(255,255,255)" stroke="none" x="175" y="1188.000002861023" width="450" height="96" fill-opacity="1"/><text fill="rgb(0,0,0)" stroke="none" font-family="Avenir, Helvetica, Arial, sans-serif" font-size="32px" font-style="normal" font-weight="bold" text-decoration="normal" x="400" y="1252.000002861023" text-anchor="middle" dominant-baseline="text-after-edge" fill-opacity="1">google_compute_address</text><path fill="rgb(255,255,255)" stroke="rgb(0,0,0)" paint-order="fill stroke markers" d=" M 400 1565.2000035762787 L 722 1565.2000035762787 L 722 1565.2000035762787 A 8 8 0 0 1 730 1573.2000035762787 L 730 1747.2000035762787 L 730 1747.2000035762787 A 8 8 0 0 1 722 1755.2000035762787 L 78 1755.2000035762787 L 78 1755.2000035762787 A 8 8 0 0 1 70 1747.2000035762787 L 70 1573.2000035762787 L 70 1573.2000035762787 A 8 8 0 0 1 78 1565.2000035762787 L 400 1565.2000035762787 Z" fill-opacity="1" stroke-opacity="1" stroke-miterlimit="10" stroke-width="5"/><rect fill="rgb(255,255,255)" stroke="none" x="171.5" y="1516.2000035762787" width="457" height="96" fill-opacity="1"/><text fill="rgb(0,0,0)" stroke="none" font-family="Avenir, Helvetica, Arial, sans-serif" font-size="32px" font-style="normal" font-weight="bold" text-decoration="normal" x="400" y="1580.2000035762787" text-anchor="middle" dominant-baseline="text-after-edge" fill-opacity="1">google_compute_instance</text><path fill="rgb(255,255,255)" stroke="rgb(0,0,0)" paint-order="fill stroke markers" d=" M 400 1893.4000042915345 L 722 1893.4000042915345 L 722 1893.4000042915345 A 8 8 0 0 1 730 1901.4000042915345 L 730 2075.4000042915345 L 730 2075.4000042915345 A 8 8 0 0 1 722 2083.4000042915345 L 78 2083.4000042915345 L 78 2083.4000042915345 A 8 8 0 0 1 70 2075.4000042915345 L 70 1901.4000042915345 L 70 1901.4000042915345 A 8 8 0 0 1 78 1893.4000042915345 L 400 1893.4000042915345 Z" fill-opacity="1" stroke-opacity="1" stroke-miterlimit="10" stroke-width="5"/><rect fill="rgb(255,255,255)" stroke="none" x="171" y="1844.4000042915345" width="458" height="96" fill-opacity="1"/><text fill="rgb(0,0,0)" stroke="none" font-family="Avenir, Helvetica, Arial, sans-serif" font-size="32px" font-style="normal" font-weight="bold" text-decoration="normal" x="400" y="1908.4000042915345" text-anchor="middle" dominant-baseline="text-after-edge" fill-opacity="1">google_compute_network</text><path fill="rgb(255,255,255)" stroke="rgb(0,0,0)" paint-order="fill stroke markers" d=" M 400 2221.6000050067905 L 722 2221.6000050067905 L 722 2221.6000050067905 A 8 8 0 0 1 730 2229.6000050067905 L 730 2403.6000050067905 L 730 2403.6000050067905 A 8 8 0 0 1 722 2411.6000050067905 L 78 2411.6000050067905 L 78 2411.6000050067905 A 8 8 0 0 1 70 2403.6000050067905 L 70 2229.6000050067905 L 70 2229.6000050067905 A 8 8 0 0 1 78 2221.6000050067905 L 400 2221.6000050067905 Z" fill-opacity="1" stroke-opacity="1" stroke-miterlimit="10" stroke-width="5"/><rect fill="rgb(255,255,255)" stroke="none" x="144.5" y="2172.6000050067905" width="511" height="96" fill-opacity="1"/><text fill="rgb(0,0,0)" stroke="none" font-family="Avenir, Helvetica, Arial, sans-serif" font-size="32px" font-style="normal" font-weight="bold" text-decoration="normal" x="400" y="2236.6000050067905" text-anchor="middle" dominant-baseline="text-after-edge" fill-opacity="1">google_compute_subnetwork</text><path fill="none" stroke="url(#ONRgXCyiUdyr)" paint-order="fill stroke markers" d=" M 400 1293.000002861023 L 400 817.2500014305115 L 1303.0000007152557 817.2500014305115 L 1303.0000007152557 341.5" stroke-linejoin="round" stroke-miterlimit="10" stroke-width="10"/><path fill="none" stroke="url(#RIHLBKGCTHiu)" paint-order="fill stroke markers" d=" M 400 1621.2000035762787 L 400 1047.8500021457671 L 1303.0000007152557 1047.8500021457671 L 1303.0000007152557 474.50000071525574" stroke-linejoin="round" stroke-miterlimit="10" stroke-width="10"/><path fill="none" stroke="url(#iOzEczyXlHvz)" paint-order="fill stroke markers" d=" M 400 2277.6000050067905 L 400 2152.5000046491623 L 400 2152.5000046491623 L 400 2027.4000042915345" stroke-linejoin="round" stroke-miterlimit="10" stroke-width="10"/><path fill="none" stroke="url(#TEAoRifBWPrK)" paint-order="fill stroke markers" d=" M 400 2277.6000050067905 L 400 1309.5500025033953 L 1303.0000007152557 1309.5500025033953 L 1303.0000007152557 341.5" stroke-linejoin="round" stroke-miterlimit="10" stroke-width="10"/><path fill="none" stroke="url(#fKsOWNwKudAc)" paint-order="fill stroke markers" d=" M 300 341.5 L 300 981.3500017881394 L 400 981.3500017881394 L 400 1621.2000035762787" stroke-linejoin="round" stroke-miterlimit="10" stroke-width="10"/><path fill="none" stroke="url(#azbHdrbhrCwE)" paint-order="fill stroke markers" d=" M 300 474.50000071525574 L 300 1047.8500021457671 L 400 1047.8500021457671 L 400 1621.2000035762787" stroke-linejoin="round" stroke-miterlimit="10" stroke-width="10"/><path fill="rgb(225,240,255)" stroke="rgb(29,122,218)" paint-order="fill stroke markers" d=" M 1303.0000007152557 261 L 1569.0000007152557 261 L 1569.0000007152557 261 A 8 8 0 0 1 1577.0000007152557 269 L 1577.0000007152557 331 L 1577.0000007152557 331 A 8 8 0 0 1 1569.0000007152557 339 L 1037.0000007152557 339 L 1037.0000007152557 339 A 8 8 0 0 1 1029.0000007152557 331 L 1029.0000007152557 269 L 1029.0000007152557 269 A 8 8 0 0 1 1037.0000007152557 261 L 1303.0000007152557 261 Z" fill-opacity="1" stroke-opacity="1" stroke-miterlimit="10" stroke-width="5"/><text fill="rgb(0,0,0)" stroke="none" font-family="Avenir, Helvetica, Arial, sans-serif" font-size="32px" font-style="normal" font-weight="bold" text-decoration="normal" x="1303.0000007152557" y="316" text-anchor="middle" dominant-baseline="text-after-edge" fill-opacity="1">region</text><path fill="rgb(225,240,255)" stroke="rgb(29,122,218)" paint-order="fill stroke markers" d=" M 1303.0000007152557 394.00000071525574 L 1569.0000007152557 394.00000071525574 L 1569.0000007152557 394.00000071525574 A 8 8 0 0 1 1577.0000007152557 402.00000071525574 L 1577.0000007152557 464.00000071525574 L 1577.0000007152557 464.00000071525574 A 8 8 0 0 1 1569.0000007152557 472.00000071525574 L 1037.0000007152557 472.00000071525574 L 1037.0000007152557 472.00000071525574 A 8 8 0 0 1 1029.0000007152557 464.00000071525574 L 1029.0000007152557 402.00000071525574 L 1029.0000007152557 402.00000071525574 A 8 8 0 0 1 1037.0000007152557 394.00000071525574 L 1303.0000007152557 394.00000071525574 Z" fill-opacity="1" stroke-opacity="1" stroke-miterlimit="10" stroke-width="5"/><text fill="rgb(0,0,0)" stroke="none" font-family="Avenir, Helvetica, Arial, sans-serif" font-size="32px" font-style="normal" font-weight="bold" text-decoration="normal" x="1303.0000007152557" y="449.00000071525574" text-anchor="middle" dominant-baseline="text-after-edge" fill-opacity="1">zone</text><path fill="rgb(225,240,255)" stroke="rgb(29,122,218)" paint-order="fill stroke markers" d=" M 1303.0000007152557 527.0000014305115 L 1569.0000007152557 527.0000014305115 L 1569.0000007152557 527.0000014305115 A 8 8 0 0 1 1577.0000007152557 535.0000014305115 L 1577.0000007152557 597.0000014305115 L 1577.0000007152557 597.0000014305115 A 8 8 0 0 1 1569.0000007152557 605.0000014305115 L 1037.0000007152557 605.0000014305115 L 1037.0000007152557 605.0000014305115 A 8 8 0 0 1 1029.0000007152557 597.0000014305115 L 1029.0000007152557 535.0000014305115 L 1029.0000007152557 535.0000014305115 A 8 8 0 0 1 1037.0000007152557 527.0000014305115 L 1303.0000007152557 527.0000014305115 Z" fill-opacity="1" stroke-opacity="1" stroke-miterlimit="10" stroke-width="5"/><text fill="rgb(0,0,0)" stroke="none" font-family="Avenir, Helvetica, Arial, sans-serif" font-size="32px" font-style="normal" font-weight="bold" text-decoration="normal" x="1303.0000007152557" y="582.0000014305115" text-anchor="middle" dominant-baseline="text-after-edge" fill-opacity="1">project</text><path fill="rgb(225,240,255)" stroke="rgb(29,122,218)" paint-order="fill stroke markers" d=" M 1303.0000007152557 660.0000021457672 L 1569.0000007152557 660.0000021457672 L 1569.0000007152557 660.0000021457672 A 8 8 0 0 1 1577.0000007152557 668.0000021457672 L 1577.0000007152557 730.0000021457672 L 1577.0000007152557 730.0000021457672 A 8 8 0 0 1 1569.0000007152557 738.0000021457672 L 1037.0000007152557 738.0000021457672 L 1037.0000007152557 738.0000021457672 A 8 8 0 0 1 1029.0000007152557 730.0000021457672 L 1029.0000007152557 668.0000021457672 L 1029.0000007152557 668.0000021457672 A 8 8 0 0 1 1037.0000007152557 660.0000021457672 L 1303.0000007152557 660.0000021457672 Z" fill-opacity="1" stroke-opacity="1" stroke-miterlimit="10" stroke-width="5"/><text fill="rgb(0,0,0)" stroke="none" font-family="Avenir, Helvetica, Arial, sans-serif" font-size="32px" font-style="normal" font-weight="bold" text-decoration="normal" x="1303.0000007152557" y="715.0000021457672" text-anchor="middle" dominant-baseline="text-after-edge" fill-opacity="1">credentials_file</text><path fill="rgb(40,167,69)" stroke="none" paint-order="stroke fill markers" d=" M 400 1293.000002861023 L 666 1293.000002861023 L 666 1293.000002861023 A 8 8 0 0 1 674 1301.000002861023 L 674 1363.000002861023 L 674 1363.000002861023 A 8 8 0 0 1 666 1371.000002861023 L 134 1371.000002861023 L 134 1371.000002861023 A 8 8 0 0 1 126 1363.000002861023 L 126 1301.000002861023 L 126 1301.000002861023 A 8 8 0 0 1 134 1293.000002861023 L 400 1293.000002861023 Z" fill-opacity="1"/><text fill="rgb(255,255,255)" stroke="none" font-family="Avenir, Helvetica, Arial, sans-serif" font-size="32px" font-style="normal" font-weight="bold" text-decoration="normal" x="400" y="1348.000002861023" text-anchor="middle" dominant-baseline="text-after-edge" fill-opacity="1">static-ip</text><path fill="rgb(40,167,69)" stroke="none" paint-order="stroke fill markers" d=" M 400 1621.2000035762787 L 666 1621.2000035762787 L 666 1621.2000035762787 A 8 8 0 0 1 674 1629.2000035762787 L 674 1691.2000035762787 L 674 1691.2000035762787 A 8 8 0 0 1 666 1699.2000035762787 L 134 1699.2000035762787 L 134 1699.2000035762787 A 8 8 0 0 1 126 1691.2000035762787 L 126 1629.2000035762787 L 126 1629.2000035762787 A 8 8 0 0 1 134 1621.2000035762787 L 400 1621.2000035762787 Z" fill-opacity="1"/><text fill="rgb(255,255,255)" stroke="none" font-family="Avenir, Helvetica, Arial, sans-serif" font-size="32px" font-style="normal" font-weight="bold" text-decoration="normal" x="400" y="1676.2000035762787" text-anchor="middle" dominant-baseline="text-after-edge" fill-opacity="1">vm_instance</text><path fill="rgb(40,167,69)" stroke="none" paint-order="stroke fill markers" d=" M 400 1949.4000042915345 L 666 1949.4000042915345 L 666 1949.4000042915345 A 8 8 0 0 1 674 1957.4000042915345 L 674 2019.4000042915345 L 674 2019.4000042915345 A 8 8 0 0 1 666 2027.4000042915345 L 134 2027.4000042915345 L 134 2027.4000042915345 A 8 8 0 0 1 126 2019.4000042915345 L 126 1957.4000042915345 L 126 1957.4000042915345 A 8 8 0 0 1 134 1949.4000042915345 L 400 1949.4000042915345 Z" fill-opacity="1"/><text fill="rgb(255,255,255)" stroke="none" font-family="Avenir, Helvetica, Arial, sans-serif" font-size="32px" font-style="normal" font-weight="bold" text-decoration="normal" x="400" y="2004.4000042915345" text-anchor="middle" dominant-baseline="text-after-edge" fill-opacity="1">vpc_network</text><path fill="rgb(40,167,69)" stroke="none" paint-order="stroke fill markers" d=" M 400 2277.6000050067905 L 666 2277.6000050067905 L 666 2277.6000050067905 A 8 8 0 0 1 674 2285.6000050067905 L 674 2347.6000050067905 L 674 2347.6000050067905 A 8 8 0 0 1 666 2355.6000050067905 L 134 2355.6000050067905 L 134 2355.6000050067905 A 8 8 0 0 1 126 2347.6000050067905 L 126 2285.6000050067905 L 126 2285.6000050067905 A 8 8 0 0 1 134 2277.6000050067905 L 400 2277.6000050067905 Z" fill-opacity="1"/><text fill="rgb(255,255,255)" stroke="none" font-family="Avenir, Helvetica, Arial, sans-serif" font-size="32px" font-style="normal" font-weight="bold" text-decoration="normal" x="400" y="2332.6000050067905" text-anchor="middle" dominant-baseline="text-after-edge" fill-opacity="1">subnet</text><path fill="rgb(255,247,224)" stroke="rgb(255,193,7)" paint-order="fill stroke markers" d=" M 300 261 L 566 261 L 566 261 A 8 8 0 0 1 574 269 L 574 331 L 574 331 A 8 8 0 0 1 566 339 L 34 339 L 34 339 A 8 8 0 0 1 26 331 L 26 269 L 26 269 A 8 8 0 0 1 34 261 L 300 261 Z" fill-opacity="1" stroke-opacity="1" stroke-miterlimit="10" stroke-width="5"/><text fill="rgb(0,0,0)" stroke="none" font-family="Avenir, Helvetica, Arial, sans-serif" font-size="32px" font-style="normal" font-weight="bold" text-decoration="normal" x="300" y="316" text-anchor="middle" dominant-baseline="text-after-edge" fill-opacity="1">internal_ip</text><path fill="rgb(255,247,224)" stroke="rgb(255,193,7)" paint-order="fill stroke markers" d=" M 300 394.00000071525574 L 566 394.00000071525574 L 566 394.00000071525574 A 8 8 0 0 1 574 402.00000071525574 L 574 464.00000071525574 L 574 464.00000071525574 A 8 8 0 0 1 566 472.00000071525574 L 34 472.00000071525574 L 34 472.00000071525574 A 8 8 0 0 1 26 464.00000071525574 L 26 402.00000071525574 L 26 402.00000071525574 A 8 8 0 0 1 34 394.00000071525574 L 300 394.00000071525574 Z" fill-opacity="1" stroke-opacity="1" stroke-miterlimit="10" stroke-width="5"/><text fill="rgb(0,0,0)" stroke="none" font-family="Avenir, Helvetica, Arial, sans-serif" font-size="32px" font-style="normal" font-weight="bold" text-decoration="normal" x="300" y="449.00000071525574" text-anchor="middle" dominant-baseline="text-after-edge" fill-opacity="1">external_ip</text><g transform="scale(5,5) translate(-56.2,-9.200000000000001)"/></g></svg>